# Blender 4.2.0
# www.blender.org
mtllib PryBar.mtl
o Crowbar
v -0.100000 -1.000000 0.200000
v -0.100000 -0.600000 0.100000
v -0.100000 -1.000000 -0.200000
v -0.100000 -0.600000 -0.100000
v 0.100000 -1.000000 0.200000
v 0.100000 -0.600000 0.100000
v 0.100000 -1.000000 -0.200000
v 0.100000 -0.600000 -0.100000
v 0.200000 -1.500000 0.100000
v 0.200000 -1.500000 -0.100000
v 0.300000 -1.600000 0.100000
v 0.300000 -1.600000 -0.100000
v -0.100000 4.000000 0.100000
v -0.100000 4.000000 -0.100000
v 0.100000 4.000000 0.100000
v 0.100000 4.000000 -0.100000
v -0.100000 4.100000 0.100000
v -0.100000 4.100000 -0.100000
v -0.100000 4.300000 0.100000
v -0.100000 4.300000 -0.100000
v -0.300000 4.100000 0.100000
v -0.300000 4.100000 -0.100000
v -0.300000 4.300000 0.100000
v -0.300000 4.300000 -0.100000
v -0.301000 4.000000 0.099000
v -0.301000 4.000000 -0.099000
v -0.499000 4.000000 0.099000
v -0.499000 4.000000 -0.099000
v -0.315300 3.900001 0.084700
v -0.315300 3.900001 -0.084700
v -0.484700 3.900001 0.084700
v -0.484700 3.900001 -0.084700
v -0.132727 -0.600000 0.000000
v -0.002727 -0.600000 -0.130000
v 0.127273 -0.600000 0.000000
v -0.002727 -0.600000 0.130000
v -0.132727 4.000000 0.000000
v -0.002727 4.000000 -0.130000
v 0.127273 4.000000 0.000000
v -0.002727 4.000000 0.130000
v -0.100000 2.500000 0.100000
v -0.100000 2.500000 -0.100000
v 0.100000 2.500000 0.100000
v 0.100000 2.500000 -0.100000
v 0.127273 2.500000 0.000000
v -0.002727 2.500000 -0.130000
v -0.002727 2.500000 0.130000
v -0.100000 2.500000 0.000000
vn -0.9579 -0.2870 -0.0000
vn -0.9971 -0.0122 0.0754
vn -1.0000 -0.0093 -0.0000
vn -0.9971 -0.0122 -0.0754
vn -0.0284 0.0428 -0.9987
vn -0.1533 0.1032 -0.9828
vn -0.0041 0.0960 -0.9954
vn 0.1455 0.1032 -0.9840
vn -0.0389 -0.0202 -0.9990
vn 0.9880 0.1545 -0.0000
vn 0.9923 -0.0123 -0.1235
vn 0.9999 -0.0105 -0.0000
vn 0.9923 -0.0123 0.1235
vn -0.0389 -0.0202 0.9990
vn 0.1455 0.1032 0.9840
vn -0.0041 0.0960 0.9954
vn -0.1533 0.1032 0.9828
vn -0.0284 0.0428 0.9987
vn -0.0697 -0.2090 0.9754
vn -1.0000 -0.0028 -0.0000
vn -0.9869 -0.0028 0.1615
vn -0.9938 0.0759 0.0813
vn -0.9978 0.0666 -0.0000
vn -0.7921 -0.6104 -0.0000
vn -0.7071 -0.7071 -0.0000
vn -0.0697 -0.2090 -0.9754
vn 0.9487 0.3162 -0.0000
vn 0.8146 0.5801 -0.0000
vn 0.2803 -0.0000 0.9599
vn 0.1725 0.0393 0.9842
vn -0.0041 0.0458 0.9989
vn -0.2947 -0.0000 -0.9556
vn -0.1492 0.0504 -0.9875
vn -0.0041 0.0458 -0.9989
vn 0.9648 -0.0000 -0.2631
vn -0.0000 0.0664 0.9978
vn -0.0000 0.0271 0.9996
vn -0.0009 -0.0009 1.0000
vn -0.0022 -0.0022 1.0000
vn -0.9938 0.0759 -0.0813
vn -0.9869 0.1615 -0.0000
vn -0.1492 0.0504 0.9875
vn 0.1725 0.0393 -0.9842
vn -0.0000 0.0664 -0.9978
vn -0.0000 0.0271 -0.9996
vn -0.8333 0.5528 -0.0000
vn -0.0022 -0.0022 -1.0000
vn -0.0009 -0.0009 -1.0000
vn -0.0000 1.0000 -0.0000
vn -0.0000 -1.0000 -0.0000
vn -0.9899 -0.1416 -0.0000
vn 0.9999 -0.0100 -0.0000
vn 0.9974 -0.0726 -0.0000
vn -0.0014 -0.0854 0.9963
vn -0.0018 -0.0692 0.9976
vn -0.0018 -0.0692 -0.9976
vn -0.0014 -0.0854 -0.9963
vn 0.9899 -0.1416 -0.0000
vn -0.0000 -0.1416 0.9899
vn -0.0000 -0.1416 -0.9899
vn 0.9648 -0.0000 0.2631
vn 0.2803 -0.0000 -0.9599
vn -0.2947 -0.0000 0.9556
vn -0.9869 -0.0028 -0.1615
vt 0.375000 0.000000
vt 0.625000 0.000000
vt 0.625000 0.125000
vt 0.625000 0.250000
vt 0.375000 0.250000
vt 0.625000 0.375000
vt 0.625000 0.500000
vt 0.375000 0.500000
vt 0.625000 0.625000
vt 0.625000 0.750000
vt 0.375000 0.750000
vt 0.625000 0.875000
vt 0.625000 1.000000
vt 0.375000 1.000000
vt 0.125000 0.500000
vt 0.125000 0.750000
vt 0.875000 0.500000
vt 0.875000 0.750000
s 1
f 1/1/1 2/2/2 33/3/3 4/4/4 3/5/1
f 3/5/5 4/4/6 34/6/7 8/7/8 7/8/9
f 7/8/10 8/7/11 35/9/12 6/10/13 5/11/10
f 5/11/14 6/10/15 36/12/16 2/13/17 1/14/18
f 5/11/14 1/14/18 9/14/19 11/11/19
f 48/3/20 41/2/21 13/2/22 37/3/23
f 10/15/24 12/8/25 11/11/25 9/16/24
f 3/5/5 7/8/9 12/8/26 10/5/26
f 1/1/1 3/5/1 10/5/24 9/1/24
f 7/8/10 5/11/10 11/11/27 12/8/27
f 15/10/28 39/9/28 16/7/28 20/7/28 19/10/28
f 47/12/29 43/10/29 15/10/30 40/12/31
f 46/6/32 42/4/32 14/4/33 38/6/34
f 45/9/35 44/7/35 16/7/35 39/9/35
f 17/13/36 19/10/37 23/10/38 21/13/39
f 14/4/40 37/3/23 13/2/22 17/2/41 18/4/41
f 13/13/42 40/12/31 15/10/30 19/10/37 17/13/36
f 16/7/43 38/6/34 14/4/33 18/4/44 20/7/45
f 23/10/46 24/7/46 28/7/46 27/10/46
f 20/7/45 18/4/44 22/4/47 24/7/48
f 19/10/49 20/7/49 24/7/49 23/10/49
f 18/4/50 17/2/50 21/2/50 22/4/50
f 27/10/51 28/7/51 32/7/51 31/10/51
f 22/4/52 21/2/52 25/2/53 26/4/53
f 21/13/39 23/10/38 27/10/54 25/13/55
f 24/7/48 22/4/47 26/4/56 28/7/57
f 32/7/50 30/17/50 29/18/50 31/10/50
f 26/4/53 25/2/53 29/2/58 30/4/58
f 25/13/55 27/10/54 31/10/59 29/13/59
f 28/7/57 26/4/56 30/4/60 32/7/60
f 43/10/61 45/9/61 39/9/61 15/10/61
f 6/10/13 35/9/12 45/9/61 43/10/61
f 35/9/12 8/7/11 44/7/35 45/9/35
f 44/7/62 46/6/62 38/6/34 16/7/43
f 8/7/8 34/6/7 46/6/62 44/7/62
f 34/6/7 4/4/6 42/4/32 46/6/32
f 41/13/63 47/12/63 40/12/31 13/13/42
f 2/13/17 36/12/16 47/12/63 41/13/63
f 36/12/16 6/10/15 43/10/29 47/12/29
f 42/4/64 48/3/20 37/3/23 14/4/40
f 4/4/4 33/3/3 48/3/20 42/4/64
f 33/3/3 2/2/2 41/2/21 48/3/20
